<?xml version="1.0" encoding="UTF-8" standalone="no"?>
<!-- Created with Inkscape (http://www.inkscape.org/) -->

<svg
   xmlns:dc="http://purl.org/dc/elements/1.1/"
   xmlns:cc="http://creativecommons.org/ns#"
   xmlns:rdf="http://www.w3.org/1999/02/22-rdf-syntax-ns#"
   xmlns:svg="http://www.w3.org/2000/svg"
   xmlns="http://www.w3.org/2000/svg"
   xmlns:sodipodi="http://sodipodi.sourceforge.net/DTD/sodipodi-0.dtd"
   xmlns:inkscape="http://www.inkscape.org/namespaces/inkscape"
   id="svg2"
   version="1.1"
   inkscape:version="0.91 r13725"
   xml:space="preserve"
   width="263.22656"
   height="34.2015"
   viewBox="0 0 263.22656 34.2015"
   sodipodi:docname="date-bg.svg"><metadata
     id="metadata8"><rdf:RDF><cc:Work
         rdf:about=""><dc:format>image/svg+xml</dc:format><dc:type
           rdf:resource="http://purl.org/dc/dcmitype/StillImage" /><dc:title></dc:title></cc:Work></rdf:RDF></metadata><defs
     id="defs6"><clipPath
       clipPathUnits="userSpaceOnUse"
       id="clipPath16"><path
         d="m 0,0 1024,0 0,768 L 0,768 0,0 Z"
         id="path18"
         inkscape:connector-curvature="0" /></clipPath></defs><sodipodi:namedview
     pagecolor="#ffffff"
     bordercolor="#666666"
     borderopacity="1"
     objecttolerance="10"
     gridtolerance="10"
     guidetolerance="10"
     inkscape:pageopacity="0"
     inkscape:pageshadow="2"
     inkscape:window-width="1920"
     inkscape:window-height="1000"
     id="namedview4"
     showgrid="false"
     fit-margin-top="0"
     fit-margin-left="0"
     fit-margin-right="0"
     fit-margin-bottom="0"
     inkscape:zoom="0.34766083"
     inkscape:cx="531.35689"
     inkscape:cy="101.97611"
     inkscape:window-x="0"
     inkscape:window-y="1"
     inkscape:window-maximized="1"
     inkscape:current-layer="g10" /><g
     id="g10"
     inkscape:groupmode="layer"
     inkscape:label="sablona_powerpoint"
     transform="matrix(1.25,0,0,-1.25,-508.38672,153.24822)"><path
       style="fill:#ff6100;fill-opacity:1;fill-rule:nonzero;stroke:none"
       d="m 508.38672,806.75195 13.98242,20.28711 c 0,0 5.83703,9.93407 12.14453,12.16406 5.83125,2.0625 16.27539,1.73047 16.27539,1.73047 l 12.44532,0 -0.006,0.0195 208.38476,0 -13.98242,-20.2871 c 0,0 -5.83578,-9.93407 -12.14453,-12.16407 -5.83,-2.0625 -16.27539,-1.73047 -16.27539,-1.73047 l -43.82227,0.0234 0.0137,-0.043 -177.01562,0 z"
       transform="matrix(0.8,0,0,-0.8,0,768)"
       id="path66"
       inkscape:connector-curvature="0" /></g></svg>