<?xml version="1.0" encoding="UTF-8" standalone="no"?>
<!-- Created with Inkscape (http://www.inkscape.org/) -->

<svg
   xmlns:dc="http://purl.org/dc/elements/1.1/"
   xmlns:cc="http://creativecommons.org/ns#"
   xmlns:rdf="http://www.w3.org/1999/02/22-rdf-syntax-ns#"
   xmlns:svg="http://www.w3.org/2000/svg"
   xmlns="http://www.w3.org/2000/svg"
   xmlns:sodipodi="http://sodipodi.sourceforge.net/DTD/sodipodi-0.dtd"
   xmlns:inkscape="http://www.inkscape.org/namespaces/inkscape"
   id="svg2"
   version="1.1"
   inkscape:version="0.91 r13725"
   xml:space="preserve"
   width="426.21225"
   height="257.00638"
   viewBox="0 0 426.21225 257.00638"
   sodipodi:docname="logo.svg"><metadata
     id="metadata8"><rdf:RDF><cc:Work
         rdf:about=""><dc:format>image/svg+xml</dc:format><dc:type
           rdf:resource="http://purl.org/dc/dcmitype/StillImage" /><dc:title></dc:title></cc:Work></rdf:RDF></metadata><defs
     id="defs6"><clipPath
       clipPathUnits="userSpaceOnUse"
       id="clipPath16"><path
         d="m 0,0 1024,0 0,768 L 0,768 0,0 Z"
         id="path18"
         inkscape:connector-curvature="0" /></clipPath></defs><sodipodi:namedview
     pagecolor="#ffffff"
     bordercolor="#666666"
     borderopacity="1"
     objecttolerance="10"
     gridtolerance="10"
     guidetolerance="10"
     inkscape:pageopacity="0"
     inkscape:pageshadow="2"
     inkscape:window-width="1321"
     inkscape:window-height="742"
     id="namedview4"
     showgrid="false"
     fit-margin-top="0"
     fit-margin-left="0"
     fit-margin-right="0"
     fit-margin-bottom="0"
     inkscape:zoom="0.98333333"
     inkscape:cx="42.110233"
     inkscape:cy="28.317963"
     inkscape:window-x="0"
     inkscape:window-y="23"
     inkscape:window-maximized="0"
     inkscape:current-layer="g10" /><g
     id="g10"
     inkscape:groupmode="layer"
     inkscape:label="sablona_powerpoint"
     transform="matrix(1.25,0,0,-1.25,-426.89388,781.18038)"><g
       id="g3475"><g
         transform="translate(534.2944,548.9003)"
         id="g20"><path
           inkscape:connector-curvature="0"
           id="path22"
           style="fill:#ff6100;fill-opacity:1;fill-rule:nonzero;stroke:none"
           d="m 0,0 -12.528,-8.634 0,48.671 0.033,0.118 c -0.021,1.305 -0.565,6.701 -7.65,11.619 -5.227,3.628 -10.882,7.754 -16.048,11.601 l 18.384,12.669 c 3.272,-2.393 6.583,-4.766 9.699,-6.931 C 6.07,59.272 9.053,45.696 8.58,38.695 l 0,-21.145 c 0,0 0.205,-6.449 -1.069,-10.05 C 6.134,3.605 0,0 0,0" /></g><g
         transform="translate(499.255,539.5458)"
         id="g24"><path
           inkscape:connector-curvature="0"
           id="path26"
           style="fill:#ff6100;fill-opacity:1;fill-rule:nonzero;stroke:none"
           d="m 0,0 c -7.083,4.917 -7.628,10.313 -7.648,11.619 l 0.031,0.117 0,56.54 -13.156,-9.066 c 0,0 -4.066,-3.022 -5.791,-6.987 -2.16,-4.956 -2.16,-11.676 -2.16,-11.676 l 0,-27.468 c -0.473,-7 2.506,-20.576 16.688,-30.419 3.884,-2.696 9.116,-5.152 13.379,-7.792 6.147,-3.812 11.529,-8.671 13.916,-12.343 l 18.248,12.576 c -1.37,2.031 -7.445,8.628 -14.388,12.967 C 14.025,-8.748 4.818,-3.344 0,0" /></g><g
         id="g3472"><path
           inkscape:connector-curvature="0"
           id="path30"
           style="fill:#000000;fill-opacity:1;fill-rule:nonzero;stroke:none"
           d="m 372.9241,420.7662 c 0,-0.258 -0.02,-0.48 -0.061,-0.665 -0.039,-0.185 -0.094,-0.335 -0.168,-0.447 -0.073,-0.113 -0.15,-0.194 -0.23,-0.241 -0.082,-0.05 -0.169,-0.074 -0.267,-0.074 -0.193,0 -0.607,0.129 -1.244,0.387 -0.636,0.259 -1.407,0.63 -2.31,1.113 -0.902,0.482 -1.89,1.075 -2.961,1.776 -1.072,0.702 -2.142,1.521 -3.205,2.455 -0.821,-0.564 -1.88,-1.051 -3.167,-1.463 -1.29,-0.411 -2.814,-0.616 -4.572,-0.616 -2.321,0 -4.314,0.367 -5.983,1.101 -1.668,0.732 -3.038,1.78 -4.109,3.143 -1.074,1.362 -1.863,3.025 -2.37,4.993 -0.509,1.966 -0.762,4.182 -0.762,6.649 0,2.451 0.281,4.674 0.845,6.674 0.564,1.999 1.422,3.703 2.575,5.114 1.153,1.41 2.596,2.503 4.329,3.277 1.732,0.774 3.767,1.16 6.106,1.16 2.192,0 4.115,-0.362 5.764,-1.088 1.655,-0.725 3.034,-1.766 4.137,-3.119 1.104,-1.354 1.935,-2.998 2.492,-4.934 0.555,-1.934 0.831,-4.119 0.831,-6.552 0,-1.242 -0.071,-2.451 -0.216,-3.627 -0.146,-1.178 -0.373,-2.297 -0.688,-3.36 -0.315,-1.065 -0.718,-2.061 -1.209,-2.988 -0.493,-0.927 -1.077,-1.76 -1.755,-2.501 1.258,-1.05 2.361,-1.863 3.314,-2.444 0.95,-0.578 1.733,-1.023 2.346,-1.33 0.612,-0.305 1.084,-0.523 1.414,-0.653 0.331,-0.128 0.568,-0.266 0.714,-0.41 0.145,-0.145 0.249,-0.323 0.313,-0.533 0.066,-0.209 0.097,-0.475 0.097,-0.797 m -7.472,18.377 c 0,1.853 -0.172,3.591 -0.518,5.211 -0.348,1.62 -0.92,3.031 -1.718,4.23 -0.797,1.203 -1.858,2.145 -3.18,2.832 -1.32,0.683 -2.958,1.027 -4.909,1.027 -1.935,0 -3.567,-0.359 -4.897,-1.077 -1.327,-0.716 -2.41,-1.679 -3.239,-2.89 -0.832,-1.208 -1.427,-2.62 -1.79,-4.23 -0.362,-1.614 -0.544,-3.314 -0.544,-5.103 0,-1.903 0.164,-3.672 0.497,-5.308 0.33,-1.637 0.889,-3.059 1.681,-4.267 0.789,-1.208 1.845,-2.156 3.167,-2.843 1.32,-0.683 2.974,-1.025 4.956,-1.025 1.966,0 3.618,0.364 4.957,1.099 1.339,0.734 2.418,1.716 3.241,2.95 0.821,1.233 1.409,2.659 1.765,4.28 0.355,1.62 0.531,3.325 0.531,5.114" /></g><g
         transform="translate(410.7065,434.9119)"
         id="g32"><path
           inkscape:connector-curvature="0"
           id="path34"
           style="fill:#000000;fill-opacity:1;fill-rule:nonzero;stroke:none"
           d="m 0,0 c 0,-1.903 -0.271,-3.595 -0.812,-5.079 -0.541,-1.483 -1.309,-2.732 -2.307,-3.747 -1,-1.016 -2.209,-1.785 -3.626,-2.309 -1.42,-0.524 -3.008,-0.786 -4.766,-0.786 -1.595,0 -3.065,0.249 -4.411,0.749 -1.347,0.5 -2.508,1.238 -3.485,2.213 -0.973,0.975 -1.73,2.185 -2.271,3.627 -0.54,1.442 -0.81,3.107 -0.81,4.993 l 0,19.635 c 0,0.097 0.025,0.185 0.073,0.266 0.049,0.08 0.133,0.144 0.254,0.192 0.121,0.05 0.27,0.089 0.447,0.123 0.178,0.031 0.412,0.048 0.701,0.048 0.276,0 0.507,-0.017 0.703,-0.048 0.192,-0.034 0.345,-0.073 0.459,-0.123 0.111,-0.048 0.192,-0.112 0.241,-0.192 0.049,-0.081 0.072,-0.169 0.072,-0.266 l 0,-19.151 c 0,-1.564 0.19,-2.934 0.57,-4.11 0.377,-1.178 0.926,-2.156 1.642,-2.94 0.719,-0.78 1.588,-1.369 2.611,-1.764 1.025,-0.395 2.182,-0.591 3.472,-0.591 1.305,0 2.47,0.188 3.492,0.566 1.023,0.379 1.892,0.956 2.6,1.729 0.71,0.775 1.254,1.738 1.633,2.892 0.377,1.15 0.567,2.501 0.567,4.05 l 0,19.319 c 0,0.097 0.026,0.185 0.073,0.266 0.049,0.08 0.129,0.144 0.24,0.192 0.114,0.05 0.268,0.089 0.462,0.123 0.193,0.031 0.427,0.048 0.7,0.048 0.274,0 0.509,-0.017 0.703,-0.048 0.192,-0.034 0.346,-0.073 0.458,-0.123 0.113,-0.048 0.194,-0.112 0.242,-0.192 C -0.023,19.481 0,19.393 0,19.296 L 0,0 Z" /></g><g
         transform="translate(452.9127,424.3923)"
         id="g36"><path
           inkscape:connector-curvature="0"
           id="path38"
           style="fill:#000000;fill-opacity:1;fill-rule:nonzero;stroke:none"
           d="M 0,0 C 0.098,-0.241 0.142,-0.439 0.134,-0.592 0.125,-0.746 0.07,-0.86 -0.036,-0.943 -0.141,-1.023 -0.3,-1.075 -0.518,-1.099 c -0.217,-0.025 -0.496,-0.038 -0.835,-0.038 -0.339,0 -0.608,0.013 -0.809,0.038 -0.202,0.024 -0.362,0.059 -0.473,0.108 -0.111,0.048 -0.198,0.114 -0.253,0.193 -0.057,0.08 -0.109,0.178 -0.157,0.291 l -2.997,8.343 -13.737,0 -2.877,-8.295 c -0.032,-0.114 -0.081,-0.21 -0.146,-0.29 -0.063,-0.08 -0.153,-0.148 -0.265,-0.205 -0.113,-0.056 -0.271,-0.101 -0.47,-0.133 -0.202,-0.032 -0.456,-0.05 -0.764,-0.05 -0.336,0 -0.621,0.018 -0.844,0.05 -0.227,0.032 -0.392,0.089 -0.497,0.168 -0.106,0.082 -0.161,0.195 -0.171,0.339 -0.007,0.147 0.038,0.339 0.135,0.58 l 10.954,29.767 c 0.047,0.129 0.12,0.238 0.217,0.326 0.096,0.09 0.222,0.158 0.376,0.207 0.152,0.048 0.337,0.084 0.555,0.108 0.217,0.024 0.463,0.037 0.738,0.037 0.29,0 0.544,-0.013 0.76,-0.037 0.217,-0.024 0.405,-0.06 0.557,-0.108 0.153,-0.049 0.272,-0.117 0.364,-0.207 0.089,-0.088 0.156,-0.197 0.205,-0.326 L 0,0 Z m -12.983,27.132 -0.026,0 -5.899,-16.83 11.969,0 -6.044,16.83 z" /></g><g
         transform="translate(492.9456,424.8281)"
         id="g40"><path
           inkscape:connector-curvature="0"
           id="path42"
           style="fill:#000000;fill-opacity:1;fill-rule:nonzero;stroke:none"
           d="m 0,0 c 0,-0.29 -0.046,-0.533 -0.132,-0.726 -0.09,-0.191 -0.204,-0.351 -0.341,-0.47 -0.136,-0.123 -0.29,-0.205 -0.458,-0.254 -0.168,-0.048 -0.327,-0.072 -0.47,-0.072 l -0.606,0 c -0.323,0 -0.616,0.039 -0.881,0.121 -0.268,0.079 -0.526,0.219 -0.775,0.421 -0.251,0.202 -0.501,0.473 -0.751,0.811 -0.249,0.338 -0.528,0.773 -0.833,1.306 l -11.026,19.537 c -0.55,0.952 -1.1,1.93 -1.657,2.939 -0.555,1.007 -1.085,1.987 -1.585,2.938 l -0.023,0 c 0.016,-1.176 0.023,-2.381 0.023,-3.615 l 0,-3.615 0,-20.264 c 0,-0.097 -0.023,-0.185 -0.071,-0.266 -0.049,-0.081 -0.128,-0.145 -0.242,-0.192 -0.113,-0.049 -0.262,-0.09 -0.448,-0.121 -0.185,-0.033 -0.424,-0.05 -0.712,-0.05 -0.276,0 -0.508,0.017 -0.703,0.05 -0.193,0.031 -0.346,0.072 -0.459,0.121 -0.111,0.047 -0.192,0.111 -0.242,0.192 -0.048,0.081 -0.073,0.169 -0.073,0.266 l 0,29.283 c 0,0.579 0.154,0.98 0.46,1.196 0.305,0.22 0.604,0.328 0.895,0.328 l 1.21,0 c 0.385,0 0.708,-0.034 0.966,-0.097 0.259,-0.065 0.491,-0.174 0.702,-0.328 0.21,-0.153 0.415,-0.37 0.617,-0.652 0.201,-0.282 0.422,-0.641 0.664,-1.077 l 8.44,-14.967 c 0.531,-0.936 1.035,-1.833 1.509,-2.696 0.476,-0.862 0.939,-1.708 1.391,-2.538 0.452,-0.831 0.9,-1.65 1.343,-2.456 0.443,-0.806 0.883,-1.619 1.317,-2.441 l 0.026,0 c -0.018,1.353 -0.026,2.763 -0.026,4.232 l 0,4.231 0,18.208 c 0,0.097 0.026,0.185 0.071,0.266 0.05,0.081 0.131,0.15 0.242,0.207 0.114,0.055 0.262,0.096 0.45,0.119 0.186,0.024 0.422,0.037 0.713,0.037 0.256,0 0.484,-0.013 0.676,-0.037 0.194,-0.023 0.348,-0.064 0.46,-0.119 0.113,-0.057 0.197,-0.126 0.254,-0.207 C -0.028,29.468 0,29.38 0,29.283 L 0,0 Z" /></g><g
         transform="translate(532.9271,453.3389)"
         id="g44"><path
           inkscape:connector-curvature="0"
           id="path46"
           style="fill:#000000;fill-opacity:1;fill-rule:nonzero;stroke:none"
           d="m 0,0 c 0,-0.211 -0.014,-0.396 -0.048,-0.559 -0.032,-0.16 -0.08,-0.293 -0.144,-0.398 -0.064,-0.106 -0.146,-0.185 -0.242,-0.242 -0.099,-0.056 -0.204,-0.084 -0.315,-0.084 l -9.333,0 0,-28.171 c 0,-0.097 -0.024,-0.185 -0.073,-0.266 -0.048,-0.081 -0.129,-0.145 -0.242,-0.192 -0.113,-0.049 -0.265,-0.09 -0.46,-0.121 -0.192,-0.033 -0.427,-0.05 -0.702,-0.05 -0.272,0 -0.507,0.017 -0.699,0.05 -0.194,0.031 -0.348,0.072 -0.461,0.121 -0.111,0.047 -0.192,0.111 -0.242,0.192 -0.048,0.081 -0.072,0.169 -0.072,0.266 l 0,28.171 -9.333,0 c -0.131,0 -0.24,0.028 -0.327,0.084 -0.088,0.057 -0.165,0.136 -0.23,0.242 -0.064,0.105 -0.113,0.238 -0.144,0.398 -0.033,0.163 -0.049,0.348 -0.049,0.559 0,0.224 0.016,0.421 0.049,0.591 0.031,0.169 0.08,0.31 0.144,0.423 0.065,0.112 0.142,0.196 0.23,0.253 0.087,0.058 0.196,0.086 0.327,0.086 l 21.617,0 c 0.111,0 0.216,-0.028 0.315,-0.086 C -0.338,1.21 -0.256,1.126 -0.192,1.014 -0.128,0.901 -0.08,0.76 -0.048,0.591 -0.014,0.421 0,0.224 0,0" /></g><g
         transform="translate(565.4856,424.757)"
         id="g48"><path
           inkscape:connector-curvature="0"
           id="path50"
           style="fill:#000000;fill-opacity:1;fill-rule:nonzero;stroke:none"
           d="M 0,0 C 0,-0.228 -0.013,-0.42 -0.046,-0.581 -0.08,-0.742 -0.127,-0.883 -0.192,-1.006 -0.255,-1.125 -0.336,-1.215 -0.434,-1.27 -0.53,-1.327 -0.642,-1.356 -0.772,-1.356 l -13.565,0 c -0.29,0 -0.589,0.108 -0.894,0.328 -0.306,0.218 -0.46,0.615 -0.46,1.196 l 0,29.283 c 0,0.097 0.024,0.185 0.073,0.266 0.048,0.08 0.129,0.144 0.242,0.192 0.111,0.05 0.265,0.089 0.46,0.123 0.191,0.031 0.426,0.048 0.699,0.048 0.292,0 0.527,-0.017 0.715,-0.048 0.184,-0.034 0.333,-0.073 0.447,-0.123 0.113,-0.048 0.194,-0.112 0.242,-0.192 0.046,-0.081 0.072,-0.169 0.072,-0.266 l 0,-28.122 11.969,0 c 0.13,0 0.242,-0.029 0.338,-0.084 C -0.336,1.188 -0.255,1.108 -0.192,1.003 -0.127,0.897 -0.08,0.761 -0.046,0.591 -0.013,0.422 0,0.225 0,0" /></g><g
         transform="translate(604.6471,424.3923)"
         id="g52"><path
           inkscape:connector-curvature="0"
           id="path54"
           style="fill:#000000;fill-opacity:1;fill-rule:nonzero;stroke:none"
           d="M 0,0 C 0.097,-0.241 0.141,-0.439 0.132,-0.592 0.124,-0.746 0.068,-0.86 -0.037,-0.943 c -0.104,-0.08 -0.265,-0.132 -0.483,-0.156 -0.216,-0.025 -0.495,-0.038 -0.833,-0.038 -0.339,0 -0.61,0.013 -0.81,0.038 -0.203,0.024 -0.361,0.059 -0.473,0.108 -0.113,0.048 -0.197,0.114 -0.254,0.193 -0.057,0.08 -0.108,0.178 -0.156,0.291 l -2.998,8.343 -13.734,0 -2.879,-8.295 c -0.032,-0.114 -0.079,-0.21 -0.144,-0.29 -0.064,-0.08 -0.154,-0.148 -0.267,-0.205 -0.112,-0.056 -0.27,-0.101 -0.47,-0.133 -0.202,-0.032 -0.457,-0.05 -0.763,-0.05 -0.338,0 -0.618,0.018 -0.846,0.05 -0.225,0.032 -0.39,0.089 -0.496,0.168 -0.105,0.082 -0.16,0.195 -0.169,0.339 -0.009,0.147 0.037,0.339 0.132,0.58 l 10.955,29.767 c 0.047,0.129 0.121,0.238 0.217,0.326 0.098,0.09 0.222,0.158 0.376,0.207 0.154,0.048 0.337,0.084 0.555,0.108 0.218,0.024 0.463,0.037 0.738,0.037 0.29,0 0.544,-0.013 0.762,-0.037 0.216,-0.024 0.403,-0.06 0.557,-0.108 0.151,-0.049 0.272,-0.117 0.36,-0.207 0.09,-0.088 0.158,-0.197 0.207,-0.326 L 0,0 Z m -12.984,27.132 -0.023,0 -5.902,-16.83 11.969,0 -6.044,16.83 z" /></g><g
         transform="translate(644.6796,424.8281)"
         id="g56"><path
           inkscape:connector-curvature="0"
           id="path58"
           style="fill:#000000;fill-opacity:1;fill-rule:nonzero;stroke:none"
           d="m 0,0 c 0,-0.29 -0.044,-0.533 -0.134,-0.726 -0.09,-0.191 -0.201,-0.351 -0.337,-0.47 -0.139,-0.123 -0.292,-0.205 -0.461,-0.254 -0.169,-0.048 -0.326,-0.072 -0.472,-0.072 l -0.604,0 c -0.321,0 -0.615,0.039 -0.882,0.121 -0.266,0.079 -0.522,0.219 -0.773,0.421 -0.251,0.202 -0.502,0.473 -0.749,0.811 -0.252,0.338 -0.53,0.773 -0.836,1.306 l -11.025,19.537 c -0.547,0.952 -1.101,1.93 -1.658,2.939 -0.554,1.007 -1.084,1.987 -1.584,2.938 l -0.023,0 c 0.014,-1.176 0.023,-2.381 0.023,-3.615 l 0,-3.615 0,-20.264 c 0,-0.097 -0.023,-0.185 -0.073,-0.266 -0.047,-0.081 -0.126,-0.145 -0.24,-0.192 -0.114,-0.049 -0.261,-0.09 -0.448,-0.121 -0.185,-0.033 -0.424,-0.05 -0.713,-0.05 -0.274,0 -0.509,0.017 -0.702,0.05 -0.193,0.031 -0.346,0.072 -0.459,0.121 -0.112,0.047 -0.194,0.111 -0.242,0.192 -0.049,0.081 -0.074,0.169 -0.074,0.266 l 0,29.283 c 0,0.579 0.155,0.98 0.46,1.196 0.308,0.22 0.605,0.328 0.897,0.328 l 1.209,0 c 0.385,0 0.708,-0.034 0.966,-0.097 0.258,-0.065 0.491,-0.174 0.701,-0.328 0.211,-0.153 0.416,-0.37 0.618,-0.652 0.202,-0.282 0.421,-0.641 0.664,-1.077 l 8.44,-14.967 c 0.531,-0.936 1.035,-1.833 1.509,-2.696 0.476,-0.862 0.94,-1.708 1.392,-2.538 0.451,-0.831 0.899,-1.65 1.342,-2.456 0.444,-0.806 0.883,-1.619 1.317,-2.441 l 0.024,0 c -0.016,1.353 -0.024,2.763 -0.024,4.232 l 0,4.231 0,18.208 c 0,0.097 0.024,0.185 0.073,0.266 0.048,0.081 0.129,0.15 0.242,0.207 0.112,0.055 0.262,0.096 0.448,0.119 0.184,0.024 0.422,0.037 0.712,0.037 0.26,0 0.483,-0.013 0.678,-0.037 0.194,-0.023 0.346,-0.064 0.459,-0.119 0.113,-0.057 0.197,-0.126 0.254,-0.207 C -0.028,29.468 0,29.38 0,29.283 L 0,0 Z" /></g><g
         transform="translate(682.4849,424.7086)"
         id="g60"><path
           inkscape:connector-curvature="0"
           id="path62"
           style="fill:#000000;fill-opacity:1;fill-rule:nonzero;stroke:none"
           d="M 0,0 C 0,-0.211 -0.016,-0.396 -0.047,-0.557 -0.08,-0.718 -0.131,-0.856 -0.205,-0.969 -0.278,-1.081 -0.362,-1.166 -0.459,-1.222 -0.555,-1.279 -0.661,-1.307 -0.773,-1.307 l -14.654,0 c -0.291,0 -0.587,0.108 -0.893,0.327 -0.307,0.218 -0.461,0.615 -0.461,1.196 l 0,28.243 c 0,0.58 0.154,0.98 0.461,1.197 0.306,0.219 0.602,0.327 0.893,0.327 l 14.436,0 c 0.114,0 0.218,-0.028 0.314,-0.085 0.097,-0.057 0.178,-0.141 0.243,-0.254 0.064,-0.112 0.112,-0.253 0.145,-0.423 0.033,-0.169 0.048,-0.367 0.048,-0.591 0,-0.211 -0.015,-0.396 -0.048,-0.558 -0.033,-0.161 -0.081,-0.293 -0.145,-0.399 -0.065,-0.105 -0.146,-0.185 -0.243,-0.242 -0.096,-0.056 -0.2,-0.084 -0.314,-0.084 l -12.84,0 0,-11.002 11.075,0 c 0.13,0 0.241,-0.029 0.338,-0.084 0.098,-0.057 0.178,-0.137 0.242,-0.242 0.065,-0.104 0.114,-0.241 0.145,-0.412 0.031,-0.168 0.048,-0.368 0.048,-0.593 0,-0.209 -0.017,-0.39 -0.048,-0.544 -0.031,-0.152 -0.08,-0.276 -0.145,-0.374 -0.064,-0.097 -0.144,-0.17 -0.242,-0.218 -0.097,-0.049 -0.208,-0.071 -0.338,-0.071 l -11.075,0 0,-12.478 13.058,0 c 0.112,0 0.218,-0.029 0.314,-0.084 C -0.362,1.188 -0.278,1.107 -0.205,1.003 -0.131,0.897 -0.08,0.761 -0.047,0.592 -0.016,0.422 0,0.224 0,0" /></g></g></g></svg>