<?xml version="1.0" encoding="UTF-8" standalone="no"?>
<!-- Created with Inkscape (http://www.inkscape.org/) -->

<svg
   xmlns:dc="http://purl.org/dc/elements/1.1/"
   xmlns:cc="http://creativecommons.org/ns#"
   xmlns:rdf="http://www.w3.org/1999/02/22-rdf-syntax-ns#"
   xmlns:svg="http://www.w3.org/2000/svg"
   xmlns="http://www.w3.org/2000/svg"
   xmlns:sodipodi="http://sodipodi.sourceforge.net/DTD/sodipodi-0.dtd"
   xmlns:inkscape="http://www.inkscape.org/namespaces/inkscape"
   id="svg2"
   version="1.1"
   inkscape:version="0.91 r13725"
   xml:space="preserve"
   width="191.57471"
   height="39.900623"
   viewBox="0 0 191.57471 39.900623"
   sodipodi:docname="logo-positive-horizontal.svg"><metadata
     id="metadata8"><rdf:RDF><cc:Work
         rdf:about=""><dc:format>image/svg+xml</dc:format><dc:type
           rdf:resource="http://purl.org/dc/dcmitype/StillImage" /><dc:title></dc:title></cc:Work></rdf:RDF></metadata><defs
     id="defs6"><clipPath
       clipPathUnits="userSpaceOnUse"
       id="clipPath20"><path
         d="m 0,0 1024,0 0,768 L 0,768 0,0 Z"
         id="path22"
         inkscape:connector-curvature="0" /></clipPath></defs><sodipodi:namedview
     pagecolor="#ffffff"
     bordercolor="#666666"
     borderopacity="1"
     objecttolerance="10"
     gridtolerance="10"
     guidetolerance="10"
     inkscape:pageopacity="0"
     inkscape:pageshadow="2"
     inkscape:window-width="1574"
     inkscape:window-height="881"
     id="namedview4"
     showgrid="false"
     fit-margin-top="0"
     fit-margin-left="0"
     fit-margin-right="0"
     fit-margin-bottom="0"
     inkscape:zoom="1.9666667"
     inkscape:cx="-8.3191605"
     inkscape:cy="-11.258859"
     inkscape:window-x="0"
     inkscape:window-y="23"
     inkscape:window-maximized="0"
     inkscape:current-layer="g10" /><g
     id="g10"
     inkscape:groupmode="layer"
     inkscape:label="sablona_powerpoint"
     transform="matrix(1.25,0,0,-1.25,-1041.3485,64.65475)"><g
       clip-path="url(#clipPath20)"
       id="g18"><g
         transform="translate(849.6559,31.9688)"
         id="g24"><path
           inkscape:connector-curvature="0"
           id="path26"
           style="fill:#ff6100;fill-opacity:1;fill-rule:nonzero;stroke:none"
           d="m 0,0 -3.255,-2.243 0,12.644 0.009,0.031 c -0.006,0.339 -0.147,1.741 -1.988,3.018 -1.358,0.943 -2.827,2.015 -4.169,3.014 l 4.776,3.291 c 0.85,-0.621 1.71,-1.238 2.52,-1.8 3.684,-2.557 4.458,-6.084 4.336,-7.902 l 0,-5.494 c 0,0 0.053,-1.675 -0.278,-2.611 C 1.594,0.936 0,0 0,0" /></g><g
         transform="translate(840.5529,29.5383)"
         id="g28"><path
           inkscape:connector-curvature="0"
           id="path30"
           style="fill:#ff6100;fill-opacity:1;fill-rule:nonzero;stroke:none"
           d="m 0,0 c -1.84,1.278 -1.982,2.68 -1.987,3.019 l 0.008,0.03 0,14.689 -3.418,-2.356 c 0,0 -1.056,-0.785 -1.505,-1.815 -0.56,-1.287 -0.56,-3.033 -0.56,-3.033 l 0,-7.136 c -0.123,-1.818 0.651,-5.345 4.335,-7.903 1.009,-0.7 2.369,-1.338 3.476,-2.024 1.597,-0.99 2.995,-2.253 3.615,-3.206 l 4.741,3.267 C 8.349,-5.94 6.771,-4.227 4.967,-3.1 3.644,-2.272 1.252,-0.869 0,0" /></g><g
         transform="translate(875.8636,29.8897)"
         id="g32"><path
           inkscape:connector-curvature="0"
           id="path34"
           style="fill:#000000;fill-opacity:1;fill-rule:nonzero;stroke:none"
           d="m 0,0 c 0,-0.092 -0.007,-0.171 -0.022,-0.237 -0.014,-0.067 -0.034,-0.12 -0.06,-0.16 -0.026,-0.04 -0.053,-0.069 -0.082,-0.086 -0.029,-0.018 -0.06,-0.026 -0.095,-0.026 -0.069,0 -0.217,0.046 -0.444,0.138 -0.228,0.092 -0.502,0.224 -0.824,0.397 -0.322,0.172 -0.675,0.384 -1.057,0.634 -0.383,0.25 -0.764,0.542 -1.144,0.876 -0.293,-0.202 -0.67,-0.375 -1.13,-0.522 -0.46,-0.147 -1.004,-0.22 -1.631,-0.22 -0.829,0 -1.541,0.131 -2.136,0.392 -0.595,0.262 -1.084,0.636 -1.467,1.122 -0.383,0.486 -0.664,1.08 -0.846,1.782 -0.181,0.702 -0.271,1.493 -0.271,2.373 0,0.875 0.1,1.669 0.302,2.382 0.201,0.713 0.507,1.322 0.919,1.825 0.411,0.504 0.926,0.893 1.544,1.169 0.619,0.277 1.345,0.415 2.179,0.415 0.782,0 1.468,-0.13 2.058,-0.389 0.59,-0.259 1.082,-0.63 1.476,-1.113 0.394,-0.483 0.69,-1.07 0.889,-1.76 0.198,-0.691 0.297,-1.47 0.297,-2.339 0,-0.443 -0.025,-0.875 -0.077,-1.294 -0.052,-0.42 -0.134,-0.82 -0.246,-1.2 C -1.98,3.78 -2.124,3.424 -2.3,3.093 -2.475,2.763 -2.683,2.465 -2.925,2.2 -2.477,1.826 -2.083,1.536 -1.743,1.329 -1.404,1.122 -1.125,0.964 -0.906,0.854 -0.687,0.745 -0.519,0.667 -0.401,0.621 -0.283,0.575 -0.198,0.526 -0.146,0.475 -0.095,0.423 -0.057,0.359 -0.034,0.285 -0.012,0.21 0,0.115 0,0 m -2.667,6.558 c 0,0.662 -0.061,1.282 -0.185,1.86 -0.124,0.578 -0.328,1.081 -0.612,1.51 -0.285,0.429 -0.664,0.765 -1.135,1.01 -0.472,0.244 -1.056,0.366 -1.752,0.366 -0.69,0 -1.273,-0.128 -1.748,-0.384 -0.474,-0.256 -0.86,-0.599 -1.156,-1.031 -0.296,-0.431 -0.509,-0.935 -0.638,-1.51 -0.13,-0.575 -0.195,-1.182 -0.195,-1.821 0,-0.679 0.059,-1.31 0.177,-1.894 0.118,-0.584 0.318,-1.092 0.6,-1.523 0.282,-0.431 0.659,-0.77 1.13,-1.014 0.472,-0.245 1.062,-0.367 1.77,-0.367 0.701,0 1.291,0.131 1.769,0.393 0.477,0.262 0.862,0.613 1.156,1.053 0.293,0.44 0.503,0.949 0.63,1.527 0.126,0.578 0.189,1.186 0.189,1.825" /></g><g
         transform="translate(889.3473,34.9378)"
         id="g36"><path
           inkscape:connector-curvature="0"
           id="path38"
           style="fill:#000000;fill-opacity:1;fill-rule:nonzero;stroke:none"
           d="m 0,0 c 0,-0.679 -0.096,-1.283 -0.289,-1.812 -0.193,-0.53 -0.468,-0.975 -0.824,-1.338 -0.357,-0.362 -0.789,-0.637 -1.295,-0.824 -0.506,-0.187 -1.073,-0.28 -1.7,-0.28 -0.569,0 -1.094,0.089 -1.575,0.267 -0.48,0.178 -0.894,0.442 -1.242,0.79 -0.348,0.348 -0.619,0.779 -0.811,1.294 -0.193,0.515 -0.29,1.109 -0.29,1.782 l 0,7.007 c 0,0.035 0.009,0.066 0.027,0.095 0.017,0.029 0.047,0.052 0.09,0.069 0.043,0.017 0.096,0.032 0.16,0.043 0.063,0.012 0.146,0.018 0.25,0.018 0.098,0 0.181,-0.006 0.25,-0.018 0.069,-0.011 0.124,-0.026 0.164,-0.043 0.04,-0.017 0.069,-0.04 0.086,-0.069 0.018,-0.029 0.027,-0.06 0.027,-0.095 l 0,-6.834 c 0,-0.559 0.067,-1.047 0.202,-1.467 0.135,-0.42 0.331,-0.77 0.587,-1.049 0.256,-0.279 0.567,-0.489 0.932,-0.63 0.365,-0.141 0.778,-0.211 1.238,-0.211 0.466,0 0.882,0.067 1.247,0.203 0.365,0.135 0.675,0.341 0.928,0.617 0.253,0.276 0.447,0.619 0.582,1.031 0.135,0.411 0.203,0.893 0.203,1.445 l 0,6.895 c 0,0.035 0.009,0.066 0.026,0.095 0.017,0.029 0.046,0.052 0.086,0.069 0.041,0.017 0.095,0.032 0.164,0.043 0.069,0.012 0.153,0.018 0.251,0.018 0.097,0 0.181,-0.006 0.25,-0.018 C -0.207,7.082 -0.152,7.067 -0.112,7.05 -0.072,7.033 -0.043,7.01 -0.026,6.981 -0.009,6.952 0,6.921 0,6.886 L 0,0 Z" /></g><g
         transform="translate(904.4099,31.1841)"
         id="g40"><path
           inkscape:connector-curvature="0"
           id="path42"
           style="fill:#000000;fill-opacity:1;fill-rule:nonzero;stroke:none"
           d="M 0,0 C 0.035,-0.086 0.05,-0.157 0.048,-0.212 0.045,-0.266 0.025,-0.308 -0.013,-0.337 -0.05,-0.365 -0.108,-0.384 -0.186,-0.393 c -0.077,-0.008 -0.176,-0.013 -0.297,-0.013 -0.121,0 -0.218,0.005 -0.289,0.013 -0.072,0.009 -0.128,0.022 -0.168,0.039 -0.041,0.017 -0.071,0.04 -0.091,0.069 -0.021,0.029 -0.039,0.063 -0.056,0.104 l -1.07,2.977 -4.902,0 -1.027,-2.96 c -0.011,-0.04 -0.029,-0.075 -0.051,-0.104 -0.023,-0.029 -0.055,-0.053 -0.095,-0.073 -0.041,-0.02 -0.097,-0.036 -0.169,-0.048 -0.072,-0.011 -0.162,-0.017 -0.271,-0.017 -0.121,0 -0.222,0.006 -0.302,0.017 -0.081,0.012 -0.14,0.032 -0.177,0.061 -0.038,0.029 -0.058,0.069 -0.061,0.121 -0.003,0.051 0.013,0.121 0.048,0.207 l 3.909,10.623 c 0.017,0.046 0.043,0.084 0.077,0.116 0.035,0.032 0.079,0.056 0.134,0.073 0.055,0.018 0.121,0.031 0.199,0.039 0.077,0.009 0.165,0.013 0.263,0.013 0.103,0 0.194,-0.004 0.272,-0.013 0.077,-0.008 0.143,-0.021 0.198,-0.039 0.055,-0.017 0.098,-0.041 0.13,-0.073 0.031,-0.032 0.056,-0.07 0.073,-0.116 L 0,0 Z m -4.634,9.682 -0.009,0 -2.105,-6.006 4.271,0 -2.157,6.006 z" /></g><g
         transform="translate(918.6964,31.3394)"
         id="g44"><path
           inkscape:connector-curvature="0"
           id="path46"
           style="fill:#000000;fill-opacity:1;fill-rule:nonzero;stroke:none"
           d="M 0,0 C 0,-0.104 -0.016,-0.19 -0.048,-0.259 -0.079,-0.328 -0.12,-0.384 -0.168,-0.427 -0.217,-0.47 -0.272,-0.501 -0.332,-0.518 -0.393,-0.535 -0.449,-0.544 -0.501,-0.544 l -0.215,0 c -0.116,0 -0.221,0.015 -0.315,0.043 -0.095,0.029 -0.187,0.079 -0.276,0.151 -0.09,0.072 -0.179,0.169 -0.268,0.29 -0.089,0.12 -0.189,0.276 -0.298,0.465 l -3.934,6.973 c -0.196,0.339 -0.393,0.689 -0.592,1.048 -0.198,0.36 -0.387,0.71 -0.565,1.049 l -0.009,0 c 0.006,-0.42 0.009,-0.85 0.009,-1.29 l 0,-1.29 0,-7.232 c 0,-0.034 -0.009,-0.066 -0.026,-0.095 -0.017,-0.028 -0.046,-0.051 -0.086,-0.069 -0.041,-0.017 -0.094,-0.031 -0.16,-0.043 -0.066,-0.011 -0.151,-0.017 -0.254,-0.017 -0.098,0 -0.182,0.006 -0.251,0.017 -0.069,0.012 -0.123,0.026 -0.163,0.043 -0.041,0.018 -0.07,0.041 -0.087,0.069 -0.017,0.029 -0.026,0.061 -0.026,0.095 l 0,10.451 c 0,0.207 0.055,0.349 0.164,0.427 0.109,0.077 0.216,0.116 0.319,0.116 l 0.432,0 c 0.138,0 0.253,-0.011 0.345,-0.034 0.092,-0.023 0.175,-0.062 0.25,-0.117 0.075,-0.055 0.148,-0.132 0.22,-0.233 0.072,-0.101 0.151,-0.229 0.238,-0.384 l 3.011,-5.341 c 0.19,-0.334 0.37,-0.655 0.54,-0.963 0.169,-0.307 0.335,-0.61 0.496,-0.906 0.161,-0.296 0.321,-0.588 0.479,-0.876 0.158,-0.287 0.315,-0.578 0.47,-0.871 l 0.009,0 c -0.006,0.483 -0.009,0.987 -0.009,1.51 l 0,1.51 0,6.498 c 0,0.035 0.009,0.066 0.026,0.095 0.017,0.029 0.046,0.053 0.086,0.073 0.041,0.021 0.094,0.035 0.16,0.044 0.066,0.008 0.151,0.012 0.255,0.012 0.091,0 0.172,-0.004 0.241,-0.012 0.069,-0.009 0.124,-0.023 0.164,-0.044 0.04,-0.02 0.07,-0.044 0.091,-0.073 C -0.01,10.516 0,10.485 0,10.45 L 0,0 Z" /></g><g
         transform="translate(932.9651,41.5133)"
         id="g48"><path
           inkscape:connector-curvature="0"
           id="path50"
           style="fill:#000000;fill-opacity:1;fill-rule:nonzero;stroke:none"
           d="m 0,0 c 0,-0.075 -0.006,-0.141 -0.017,-0.198 -0.012,-0.058 -0.029,-0.106 -0.052,-0.143 -0.023,-0.037 -0.052,-0.066 -0.086,-0.086 -0.035,-0.02 -0.072,-0.03 -0.112,-0.03 l -3.332,0 0,-10.054 c 0,-0.034 -0.008,-0.066 -0.025,-0.095 -0.018,-0.028 -0.046,-0.051 -0.087,-0.069 -0.04,-0.017 -0.095,-0.031 -0.164,-0.043 -0.069,-0.011 -0.152,-0.017 -0.25,-0.017 -0.098,0 -0.181,0.006 -0.25,0.017 -0.069,0.012 -0.124,0.026 -0.164,0.043 -0.04,0.018 -0.069,0.041 -0.086,0.069 -0.018,0.029 -0.026,0.061 -0.026,0.095 l 0,10.054 -3.331,0 c -0.046,0 -0.085,0.01 -0.117,0.03 -0.031,0.02 -0.059,0.049 -0.082,0.086 -0.023,0.037 -0.04,0.085 -0.051,0.143 -0.012,0.057 -0.018,0.123 -0.018,0.198 0,0.08 0.006,0.151 0.018,0.211 0.011,0.061 0.028,0.111 0.051,0.151 0.023,0.04 0.051,0.071 0.082,0.091 0.032,0.02 0.071,0.03 0.117,0.03 l 7.715,0 c 0.04,0 0.077,-0.01 0.112,-0.03 0.034,-0.02 0.063,-0.051 0.086,-0.091 0.023,-0.04 0.04,-0.09 0.052,-0.151 C -0.006,0.151 0,0.08 0,0" /></g><g
         transform="translate(944.5848,31.3133)"
         id="g52"><path
           inkscape:connector-curvature="0"
           id="path54"
           style="fill:#000000;fill-opacity:1;fill-rule:nonzero;stroke:none"
           d="m 0,0 c 0,-0.08 -0.006,-0.15 -0.017,-0.207 -0.012,-0.057 -0.029,-0.108 -0.052,-0.151 -0.023,-0.043 -0.052,-0.075 -0.086,-0.095 -0.035,-0.02 -0.075,-0.03 -0.121,-0.03 l -4.841,0 c -0.104,0 -0.211,0.039 -0.32,0.116 -0.109,0.078 -0.163,0.221 -0.163,0.428 l 0,10.45 c 0,0.034 0.008,0.066 0.025,0.095 0.018,0.028 0.046,0.051 0.087,0.069 0.04,0.017 0.095,0.031 0.164,0.043 0.069,0.011 0.152,0.017 0.25,0.017 0.103,0 0.188,-0.006 0.254,-0.017 0.066,-0.012 0.12,-0.026 0.16,-0.043 0.04,-0.018 0.069,-0.041 0.086,-0.069 0.017,-0.029 0.026,-0.061 0.026,-0.095 l 0,-10.036 4.272,0 c 0.046,0 0.086,-0.01 0.121,-0.03 0.034,-0.021 0.063,-0.05 0.086,-0.087 0.023,-0.037 0.04,-0.086 0.052,-0.147 C -0.006,0.151 0,0.081 0,0" /></g><g
         transform="translate(958.5602,31.1841)"
         id="g56"><path
           inkscape:connector-curvature="0"
           id="path58"
           style="fill:#000000;fill-opacity:1;fill-rule:nonzero;stroke:none"
           d="M 0,0 C 0.035,-0.086 0.05,-0.157 0.048,-0.212 0.045,-0.266 0.025,-0.308 -0.013,-0.337 -0.05,-0.365 -0.108,-0.384 -0.186,-0.393 c -0.077,-0.008 -0.176,-0.013 -0.297,-0.013 -0.121,0 -0.218,0.005 -0.289,0.013 -0.072,0.009 -0.129,0.022 -0.169,0.039 -0.04,0.017 -0.07,0.04 -0.09,0.069 -0.021,0.029 -0.039,0.063 -0.056,0.104 l -1.07,2.977 -4.902,0 -1.027,-2.96 c -0.011,-0.04 -0.029,-0.075 -0.051,-0.104 -0.024,-0.029 -0.055,-0.053 -0.095,-0.073 -0.041,-0.02 -0.097,-0.036 -0.169,-0.048 -0.072,-0.011 -0.162,-0.017 -0.271,-0.017 -0.121,0 -0.222,0.006 -0.302,0.017 -0.081,0.012 -0.14,0.032 -0.177,0.061 -0.038,0.029 -0.058,0.069 -0.061,0.121 -0.003,0.051 0.013,0.121 0.048,0.207 l 3.909,10.623 c 0.017,0.046 0.043,0.084 0.077,0.116 0.035,0.032 0.079,0.056 0.134,0.073 0.055,0.018 0.121,0.031 0.199,0.039 0.077,0.009 0.165,0.013 0.263,0.013 0.103,0 0.194,-0.004 0.272,-0.013 0.077,-0.008 0.143,-0.021 0.198,-0.039 0.055,-0.017 0.098,-0.041 0.13,-0.073 0.031,-0.032 0.056,-0.07 0.073,-0.116 L 0,0 Z m -4.634,9.682 -0.009,0 -2.105,-6.006 4.271,0 -2.157,6.006 z" /></g><g
         transform="translate(972.8463,31.3394)"
         id="g60"><path
           inkscape:connector-curvature="0"
           id="path62"
           style="fill:#000000;fill-opacity:1;fill-rule:nonzero;stroke:none"
           d="m 0,0 c 0,-0.104 -0.016,-0.19 -0.048,-0.259 -0.031,-0.069 -0.071,-0.125 -0.12,-0.168 -0.049,-0.043 -0.104,-0.074 -0.164,-0.091 -0.061,-0.017 -0.117,-0.026 -0.169,-0.026 l -0.215,0 c -0.116,0 -0.221,0.015 -0.315,0.043 -0.095,0.029 -0.187,0.079 -0.276,0.151 -0.09,0.072 -0.179,0.169 -0.268,0.29 -0.089,0.12 -0.189,0.276 -0.298,0.465 l -3.934,6.973 c -0.196,0.339 -0.393,0.689 -0.592,1.048 -0.198,0.36 -0.387,0.71 -0.565,1.049 l -0.009,0 c 0.006,-0.42 0.009,-0.85 0.009,-1.29 l 0,-1.29 0,-7.232 c 0,-0.034 -0.009,-0.066 -0.026,-0.095 -0.017,-0.028 -0.046,-0.051 -0.086,-0.069 -0.04,-0.017 -0.094,-0.031 -0.16,-0.043 -0.066,-0.011 -0.151,-0.017 -0.254,-0.017 -0.098,0 -0.182,0.006 -0.251,0.017 -0.069,0.012 -0.123,0.026 -0.163,0.043 -0.041,0.018 -0.07,0.041 -0.087,0.069 -0.017,0.029 -0.026,0.061 -0.026,0.095 l 0,10.451 c 0,0.207 0.055,0.349 0.164,0.427 0.109,0.077 0.216,0.116 0.319,0.116 l 0.432,0 c 0.138,0 0.253,-0.011 0.345,-0.034 0.092,-0.023 0.175,-0.062 0.25,-0.117 0.075,-0.055 0.148,-0.132 0.22,-0.233 0.072,-0.101 0.151,-0.229 0.238,-0.384 l 3.011,-5.341 c 0.19,-0.334 0.37,-0.655 0.54,-0.963 0.169,-0.307 0.335,-0.61 0.496,-0.906 0.161,-0.296 0.321,-0.588 0.479,-0.876 0.158,-0.287 0.315,-0.578 0.47,-0.871 l 0.009,0 c -0.006,0.483 -0.009,0.987 -0.009,1.51 l 0,1.51 0,6.498 c 0,0.035 0.009,0.066 0.026,0.095 0.017,0.029 0.046,0.053 0.086,0.073 0.041,0.021 0.094,0.035 0.16,0.044 0.066,0.008 0.151,0.012 0.255,0.012 0.091,0 0.172,-0.004 0.241,-0.012 0.069,-0.009 0.124,-0.023 0.164,-0.044 0.04,-0.02 0.07,-0.044 0.091,-0.073 C -0.01,10.516 0,10.485 0,10.45 L 0,0 Z" /></g><g
         transform="translate(986.3386,31.296)"
         id="g64"><path
           inkscape:connector-curvature="0"
           id="path66"
           style="fill:#000000;fill-opacity:1;fill-rule:nonzero;stroke:none"
           d="m 0,0 c 0,-0.075 -0.006,-0.141 -0.017,-0.198 -0.012,-0.058 -0.03,-0.107 -0.056,-0.147 -0.026,-0.04 -0.057,-0.071 -0.091,-0.091 -0.034,-0.02 -0.072,-0.03 -0.112,-0.03 l -5.23,0 c -0.103,0 -0.21,0.039 -0.319,0.117 -0.109,0.077 -0.164,0.22 -0.164,0.427 l 0,10.079 c 0,0.207 0.055,0.349 0.164,0.427 0.109,0.078 0.216,0.116 0.319,0.116 l 5.152,0 c 0.04,0 0.078,-0.01 0.112,-0.03 0.035,-0.02 0.064,-0.05 0.087,-0.09 0.023,-0.041 0.04,-0.091 0.051,-0.151 0.012,-0.061 0.018,-0.131 0.018,-0.212 0,-0.075 -0.006,-0.141 -0.018,-0.198 C -0.115,9.961 -0.132,9.914 -0.155,9.876 -0.178,9.839 -0.207,9.81 -0.242,9.79 -0.276,9.77 -0.314,9.76 -0.354,9.76 l -4.582,0 0,-3.926 3.952,0 c 0.046,0 0.087,-0.011 0.121,-0.031 C -0.828,5.783 -0.8,5.755 -0.777,5.717 -0.754,5.68 -0.736,5.631 -0.725,5.57 -0.713,5.51 -0.708,5.439 -0.708,5.359 -0.708,5.284 -0.713,5.22 -0.725,5.165 -0.736,5.11 -0.754,5.065 -0.777,5.031 -0.8,4.997 -0.828,4.971 -0.863,4.954 -0.897,4.936 -0.938,4.927 -0.984,4.927 l -3.952,0 0,-4.452 4.66,0 c 0.04,0 0.078,-0.01 0.112,-0.03 C -0.13,0.424 -0.099,0.395 -0.073,0.358 -0.047,0.321 -0.029,0.272 -0.017,0.212 -0.006,0.151 0,0.081 0,0" /></g></g></g></svg>