<?xml version="1.0" encoding="UTF-8" standalone="no"?>
<!-- Created with Inkscape (http://www.inkscape.org/) -->

<svg
   xmlns:dc="http://purl.org/dc/elements/1.1/"
   xmlns:cc="http://creativecommons.org/ns#"
   xmlns:rdf="http://www.w3.org/1999/02/22-rdf-syntax-ns#"
   xmlns:svg="http://www.w3.org/2000/svg"
   xmlns="http://www.w3.org/2000/svg"
   xmlns:sodipodi="http://sodipodi.sourceforge.net/DTD/sodipodi-0.dtd"
   xmlns:inkscape="http://www.inkscape.org/namespaces/inkscape"
   id="svg2"
   version="1.1"
   inkscape:version="0.91 r13725"
   xml:space="preserve"
   width="381.42975"
   height="230.00224"
   viewBox="0 0 381.42975 230.00224"
   sodipodi:docname="logo-negative.svg"><metadata
     id="metadata8"><rdf:RDF><cc:Work
         rdf:about=""><dc:format>image/svg+xml</dc:format><dc:type
           rdf:resource="http://purl.org/dc/dcmitype/StillImage" /><dc:title></dc:title></cc:Work></rdf:RDF></metadata><defs
     id="defs6"><clipPath
       clipPathUnits="userSpaceOnUse"
       id="clipPath18"><path
         d="m 0,0 1024,0 0,768 L 0,768 0,0 Z"
         id="path20"
         inkscape:connector-curvature="0" /></clipPath></defs><sodipodi:namedview
     pagecolor="#ffffff"
     bordercolor="#666666"
     borderopacity="1"
     objecttolerance="10"
     gridtolerance="10"
     guidetolerance="10"
     inkscape:pageopacity="0"
     inkscape:pageshadow="2"
     inkscape:window-width="1920"
     inkscape:window-height="1000"
     id="namedview4"
     showgrid="false"
     fit-margin-top="0"
     fit-margin-left="0"
     fit-margin-right="0"
     fit-margin-bottom="0"
     inkscape:zoom="0.69532167"
     inkscape:cx="623.38473"
     inkscape:cy="-52.832405"
     inkscape:window-x="0"
     inkscape:window-y="1"
     inkscape:window-maximized="1"
     inkscape:current-layer="g10" /><g
     id="g10"
     inkscape:groupmode="layer"
     inkscape:label="sablona_powerpoint"
     transform="matrix(1.25,0,0,-1.25,-286.77029,771.17819)"><g
       id="g14"
       transform="translate(-130.01177,33.365852)"><g
         id="g16"
         clip-path="url(#clipPath18)"><g
           id="g22"
           transform="translate(531.952,515.5227)"><path
             d="m 0,0 -11.211,-7.727 0,43.557 0.029,0.106 c -0.019,1.168 -0.506,5.997 -6.846,10.398 -4.678,3.247 -9.739,6.939 -14.362,10.382 l 16.452,11.338 c 2.928,-2.142 5.892,-4.265 8.68,-6.203 C 5.432,53.044 8.101,40.894 7.678,34.63 l 0,-18.924 c 0,0 0.184,-5.772 -0.956,-8.994 C 5.49,3.226 0,0 0,0"
             style="fill:#ff6100;fill-opacity:1;fill-rule:nonzero;stroke:none"
             id="path24"
             inkscape:connector-curvature="0" /></g><g
           id="g26"
           transform="translate(500.5942,507.1511)"><path
             d="m 0,0 c -6.339,4.4 -6.827,9.229 -6.845,10.398 l 0.028,0.105 0,50.599 -11.773,-8.113 c 0,0 -3.639,-2.705 -5.183,-6.253 -1.933,-4.436 -1.933,-10.449 -1.933,-10.449 l 0,-24.582 c -0.423,-6.265 2.243,-18.414 14.934,-27.223 3.476,-2.413 8.159,-4.61 11.974,-6.974 5.501,-3.41 10.318,-7.759 12.454,-11.045 l 16.33,11.255 C 28.76,-20.465 23.324,-14.561 17.11,-10.679 12.551,-7.828 4.312,-2.993 0,0"
             style="fill:#ff6100;fill-opacity:1;fill-rule:nonzero;stroke:none"
             id="path28"
             inkscape:connector-curvature="0" /></g><g
           id="g30"
           transform="translate(387.537,400.8519)"><path
             d="m 0,0 c 0,-0.231 -0.018,-0.43 -0.055,-0.595 -0.034,-0.166 -0.084,-0.3 -0.15,-0.4 -0.065,-0.101 -0.134,-0.174 -0.205,-0.216 -0.074,-0.044 -0.152,-0.066 -0.24,-0.066 -0.172,0 -0.543,0.116 -1.113,0.347 -0.57,0.232 -1.259,0.563 -2.067,0.995 -0.807,0.432 -1.692,0.962 -2.65,1.59 -0.96,0.628 -1.917,1.361 -2.868,2.197 -0.735,-0.505 -1.682,-0.941 -2.835,-1.309 -1.154,-0.369 -2.518,-0.552 -4.091,-0.552 -2.078,0 -3.861,0.329 -5.355,0.985 -1.492,0.655 -2.718,1.594 -3.677,2.813 -0.961,1.219 -1.667,2.707 -2.121,4.469 -0.455,1.759 -0.682,3.742 -0.682,5.95 0,2.193 0.251,4.183 0.756,5.973 0.505,1.789 1.273,3.314 2.305,4.577 1.032,1.262 2.323,2.239 3.874,2.933 1.55,0.692 3.372,1.037 5.465,1.037 1.961,0 3.682,-0.324 5.158,-0.974 1.481,-0.648 2.715,-1.58 3.703,-2.791 0.987,-1.211 1.73,-2.683 2.229,-4.415 0.497,-1.731 0.744,-3.686 0.744,-5.863 0,-1.112 -0.063,-2.194 -0.193,-3.247 -0.13,-1.054 -0.334,-2.056 -0.616,-3.007 C -4.966,9.478 -5.327,8.587 -5.766,7.757 -6.207,6.927 -6.73,6.182 -7.337,5.519 -6.211,4.58 -5.223,3.852 -4.371,3.332 -3.52,2.814 -2.819,2.417 -2.271,2.141 -1.723,1.869 -1.301,1.674 -1.006,1.557 -0.71,1.443 -0.497,1.319 -0.367,1.19 -0.237,1.06 -0.144,0.901 -0.087,0.714 -0.028,0.526 0,0.288 0,0 m -6.687,16.446 c 0,1.659 -0.154,3.213 -0.464,4.664 -0.311,1.449 -0.823,2.712 -1.537,3.786 -0.713,1.075 -1.663,1.919 -2.846,2.533 -1.181,0.612 -2.647,0.919 -4.393,0.919 -1.731,0 -3.192,-0.321 -4.382,-0.963 -1.188,-0.641 -2.157,-1.503 -2.899,-2.586 -0.744,-1.081 -1.277,-2.346 -1.602,-3.786 -0.324,-1.444 -0.487,-2.966 -0.487,-4.567 0,-1.703 0.147,-3.286 0.445,-4.75 0.295,-1.465 0.795,-2.738 1.504,-3.819 0.706,-1.081 1.652,-1.93 2.835,-2.544 1.181,-0.612 2.661,-0.918 4.435,-0.918 1.759,0 3.238,0.327 4.436,0.984 1.198,0.657 2.164,1.536 2.901,2.64 0.734,1.104 1.26,2.38 1.579,3.83 0.317,1.451 0.475,2.976 0.475,4.577"
             style="fill:#ffffff;fill-opacity:1;fill-rule:nonzero;stroke:none"
             id="path32"
             inkscape:connector-curvature="0" /></g><g
           id="g34"
           transform="translate(421.3496,413.5112)"><path
             d="m 0,0 c 0,-1.703 -0.242,-3.217 -0.726,-4.545 -0.485,-1.327 -1.172,-2.445 -2.065,-3.354 -0.895,-0.909 -1.977,-1.597 -3.245,-2.066 -1.271,-0.469 -2.692,-0.703 -4.265,-0.703 -1.428,0 -2.743,0.223 -3.948,0.67 -1.205,0.447 -2.244,1.108 -3.119,1.981 -0.87,0.872 -1.548,1.955 -2.033,3.245 -0.483,1.291 -0.724,2.781 -0.724,4.469 l 0,17.571 c 0,0.087 0.022,0.166 0.065,0.239 0.044,0.071 0.119,0.128 0.227,0.172 0.109,0.044 0.242,0.079 0.401,0.109 0.159,0.028 0.368,0.044 0.627,0.044 0.247,0 0.453,-0.016 0.629,-0.044 0.172,-0.03 0.309,-0.065 0.411,-0.109 0.099,-0.044 0.172,-0.101 0.215,-0.172 0.045,-0.073 0.065,-0.152 0.065,-0.239 l 0,-17.138 c 0,-1.4 0.17,-2.626 0.51,-3.679 0.338,-1.054 0.828,-1.929 1.47,-2.63 0.643,-0.699 1.421,-1.225 2.336,-1.579 0.918,-0.354 1.953,-0.529 3.107,-0.529 1.168,0 2.211,0.168 3.126,0.507 0.915,0.339 1.692,0.855 2.326,1.547 0.636,0.694 1.123,1.555 1.462,2.588 0.338,1.03 0.507,2.238 0.507,3.625 l 0,17.288 c 0,0.087 0.023,0.166 0.065,0.239 0.045,0.071 0.116,0.128 0.216,0.172 0.101,0.044 0.239,0.079 0.412,0.109 0.174,0.028 0.383,0.044 0.628,0.044 0.244,0 0.455,-0.016 0.628,-0.044 0.172,-0.03 0.31,-0.065 0.41,-0.109 0.101,-0.044 0.174,-0.101 0.217,-0.172 C -0.02,17.434 0,17.355 0,17.268 L 0,0 Z"
             style="fill:#ffffff;fill-opacity:1;fill-rule:nonzero;stroke:none"
             id="path36"
             inkscape:connector-curvature="0" /></g><g
           id="g38"
           transform="translate(459.1212,404.097)"><path
             d="m 0,0 c 0.088,-0.215 0.127,-0.393 0.12,-0.53 -0.008,-0.138 -0.058,-0.24 -0.152,-0.314 -0.094,-0.071 -0.237,-0.118 -0.432,-0.14 -0.194,-0.022 -0.443,-0.033 -0.747,-0.033 -0.303,0 -0.544,0.011 -0.724,0.033 -0.181,0.022 -0.324,0.054 -0.423,0.097 -0.099,0.043 -0.177,0.102 -0.227,0.173 -0.051,0.072 -0.097,0.16 -0.14,0.26 l -2.682,7.467 -12.293,0 -2.575,-7.423 c -0.029,-0.102 -0.073,-0.189 -0.131,-0.261 -0.056,-0.071 -0.137,-0.132 -0.237,-0.183 -0.101,-0.05 -0.243,-0.09 -0.421,-0.119 -0.181,-0.029 -0.408,-0.044 -0.683,-0.044 -0.301,0 -0.556,0.015 -0.756,0.044 -0.203,0.029 -0.351,0.079 -0.445,0.151 -0.094,0.073 -0.144,0.175 -0.153,0.303 -0.006,0.132 0.034,0.304 0.121,0.519 l 9.803,26.639 c 0.042,0.116 0.107,0.213 0.194,0.292 0.087,0.08 0.199,0.142 0.336,0.185 0.137,0.043 0.303,0.075 0.497,0.097 0.194,0.021 0.415,0.033 0.661,0.033 0.26,0 0.487,-0.012 0.68,-0.033 0.194,-0.022 0.362,-0.054 0.499,-0.097 0.136,-0.043 0.243,-0.105 0.325,-0.185 0.08,-0.079 0.14,-0.176 0.183,-0.292 L 0,0 Z m -11.619,24.281 -0.023,0 -5.28,-15.062 10.712,0 -5.409,15.062 z"
             style="fill:#ffffff;fill-opacity:1;fill-rule:nonzero;stroke:none"
             id="path40"
             inkscape:connector-curvature="0" /></g><g
           id="g42"
           transform="translate(494.9478,404.487)"><path
             d="m 0,0 c 0,-0.26 -0.041,-0.477 -0.119,-0.65 -0.08,-0.171 -0.182,-0.314 -0.304,-0.421 -0.123,-0.109 -0.26,-0.183 -0.411,-0.226 -0.15,-0.044 -0.291,-0.065 -0.42,-0.065 l -0.542,0 c -0.289,0 -0.552,0.035 -0.789,0.108 -0.24,0.071 -0.47,0.196 -0.693,0.377 -0.225,0.181 -0.449,0.423 -0.672,0.725 -0.223,0.304 -0.473,0.692 -0.746,1.169 l -9.868,17.485 c -0.492,0.852 -0.984,1.727 -1.482,2.63 -0.497,0.901 -0.971,1.778 -1.419,2.629 l -0.02,0 c 0.014,-1.053 0.02,-2.131 0.02,-3.235 l 0,-3.235 0,-18.135 c 0,-0.086 -0.02,-0.165 -0.063,-0.238 -0.044,-0.073 -0.115,-0.13 -0.217,-0.172 -0.101,-0.043 -0.234,-0.08 -0.4,-0.108 -0.166,-0.03 -0.38,-0.045 -0.638,-0.045 -0.247,0 -0.455,0.015 -0.629,0.045 -0.172,0.028 -0.31,0.065 -0.411,0.108 -0.099,0.042 -0.172,0.099 -0.216,0.172 -0.044,0.073 -0.065,0.152 -0.065,0.238 l 0,26.206 c 0,0.519 0.137,0.877 0.411,1.071 0.273,0.196 0.541,0.293 0.801,0.293 l 1.083,0 c 0.344,0 0.634,-0.031 0.864,-0.087 0.232,-0.058 0.44,-0.155 0.629,-0.293 0.187,-0.138 0.371,-0.331 0.552,-0.584 0.179,-0.252 0.377,-0.573 0.594,-0.963 L -7.617,11.404 C -7.142,10.566 -6.69,9.764 -6.266,8.991 -5.84,8.22 -5.426,7.463 -5.022,6.72 -4.617,5.977 -4.216,5.244 -3.82,4.522 -3.424,3.801 -3.03,3.073 -2.641,2.338 l 0.023,0 C -2.633,3.549 -2.641,4.81 -2.641,6.125 l 0,3.786 0,16.295 c 0,0.087 0.023,0.166 0.064,0.238 0.044,0.073 0.117,0.134 0.216,0.185 0.102,0.05 0.235,0.087 0.403,0.107 0.166,0.022 0.377,0.033 0.637,0.033 0.23,0 0.434,-0.011 0.606,-0.033 0.173,-0.02 0.311,-0.057 0.412,-0.107 0.1,-0.051 0.176,-0.112 0.226,-0.185 C -0.026,26.372 0,26.293 0,26.206 L 0,0 Z"
             style="fill:#ffffff;fill-opacity:1;fill-rule:nonzero;stroke:none"
             id="path44"
             inkscape:connector-curvature="0" /></g><g
           id="g46"
           transform="translate(530.7284,430.0021)"><path
             d="m 0,0 c 0,-0.189 -0.013,-0.354 -0.043,-0.5 -0.028,-0.144 -0.072,-0.262 -0.129,-0.357 -0.057,-0.094 -0.13,-0.165 -0.217,-0.216 -0.088,-0.05 -0.182,-0.075 -0.281,-0.075 l -8.353,0 0,-25.211 c 0,-0.087 -0.022,-0.166 -0.065,-0.238 -0.043,-0.073 -0.116,-0.13 -0.217,-0.172 -0.1,-0.044 -0.237,-0.081 -0.411,-0.109 -0.172,-0.029 -0.383,-0.044 -0.629,-0.044 -0.243,0 -0.453,0.015 -0.625,0.044 -0.174,0.028 -0.311,0.065 -0.412,0.109 -0.1,0.042 -0.172,0.099 -0.217,0.172 -0.043,0.072 -0.065,0.151 -0.065,0.238 l 0,25.211 -8.352,0 c -0.118,0 -0.214,0.025 -0.292,0.075 -0.079,0.051 -0.148,0.122 -0.207,0.216 -0.057,0.095 -0.1,0.213 -0.128,0.357 -0.03,0.146 -0.044,0.311 -0.044,0.5 0,0.2 0.014,0.377 0.044,0.529 0.028,0.151 0.071,0.278 0.128,0.378 0.059,0.101 0.128,0.176 0.207,0.227 0.078,0.051 0.174,0.077 0.292,0.077 l 19.346,0 c 0.099,0 0.193,-0.026 0.281,-0.077 0.087,-0.051 0.16,-0.126 0.217,-0.227 0.057,-0.1 0.101,-0.227 0.129,-0.378 C -0.013,0.377 0,0.2 0,0"
             style="fill:#ffffff;fill-opacity:1;fill-rule:nonzero;stroke:none"
             id="path48"
             inkscape:connector-curvature="0" /></g><g
           id="g50"
           transform="translate(559.8658,404.4233)"><path
             d="m 0,0 c 0,-0.204 -0.011,-0.376 -0.041,-0.52 -0.03,-0.144 -0.073,-0.27 -0.131,-0.38 -0.056,-0.107 -0.129,-0.187 -0.217,-0.237 -0.085,-0.051 -0.186,-0.076 -0.302,-0.076 l -12.139,0 c -0.26,0 -0.528,0.096 -0.801,0.293 -0.274,0.195 -0.411,0.55 -0.411,1.07 l 0,26.206 c 0,0.087 0.021,0.166 0.065,0.239 0.043,0.071 0.116,0.128 0.216,0.172 0.1,0.044 0.237,0.079 0.412,0.109 0.171,0.028 0.381,0.044 0.626,0.044 0.261,0 0.471,-0.016 0.64,-0.044 0.164,-0.03 0.298,-0.065 0.4,-0.109 0.101,-0.044 0.173,-0.101 0.217,-0.172 0.04,-0.073 0.063,-0.152 0.063,-0.239 l 0,-25.167 10.712,0 c 0.116,0 0.217,-0.025 0.302,-0.075 C -0.301,1.063 -0.228,0.992 -0.172,0.897 -0.114,0.803 -0.071,0.681 -0.041,0.529 -0.011,0.377 0,0.201 0,0"
             style="fill:#ffffff;fill-opacity:1;fill-rule:nonzero;stroke:none"
             id="path52"
             inkscape:connector-curvature="0" /></g><g
           id="g54"
           transform="translate(594.9126,404.097)"><path
             d="m 0,0 c 0.087,-0.215 0.126,-0.393 0.119,-0.53 -0.008,-0.138 -0.058,-0.24 -0.152,-0.314 -0.093,-0.071 -0.237,-0.118 -0.432,-0.14 -0.194,-0.022 -0.444,-0.033 -0.746,-0.033 -0.303,0 -0.545,0.011 -0.725,0.033 -0.181,0.022 -0.323,0.054 -0.423,0.097 -0.101,0.043 -0.176,0.102 -0.227,0.173 -0.051,0.072 -0.097,0.16 -0.14,0.26 l -2.683,7.467 -12.291,0 -2.577,-7.423 c -0.028,-0.102 -0.07,-0.189 -0.129,-0.261 -0.057,-0.071 -0.137,-0.132 -0.238,-0.183 -0.101,-0.05 -0.242,-0.09 -0.42,-0.119 -0.181,-0.029 -0.41,-0.044 -0.684,-0.044 -0.302,0 -0.553,0.015 -0.757,0.044 -0.201,0.029 -0.349,0.079 -0.443,0.151 -0.095,0.073 -0.144,0.175 -0.152,0.303 -0.008,0.132 0.033,0.304 0.119,0.519 l 9.803,26.639 c 0.043,0.116 0.109,0.213 0.194,0.292 0.088,0.08 0.199,0.142 0.337,0.185 0.137,0.043 0.302,0.075 0.497,0.097 0.195,0.021 0.414,0.033 0.66,0.033 0.26,0 0.487,-0.012 0.682,-0.033 0.193,-0.022 0.36,-0.054 0.498,-0.097 0.135,-0.043 0.244,-0.105 0.323,-0.185 0.08,-0.079 0.141,-0.176 0.184,-0.292 L 0,0 Z m -11.62,24.281 -0.021,0 -5.281,-15.062 10.711,0 -5.409,15.062 z"
             style="fill:#ffffff;fill-opacity:1;fill-rule:nonzero;stroke:none"
             id="path56"
             inkscape:connector-curvature="0" /></g><g
           id="g58"
           transform="translate(630.7388,404.487)"><path
             d="M 0,0 C 0,-0.26 -0.04,-0.477 -0.12,-0.65 -0.2,-0.821 -0.3,-0.964 -0.422,-1.071 -0.546,-1.18 -0.683,-1.254 -0.834,-1.297 -0.985,-1.341 -1.125,-1.362 -1.257,-1.362 l -0.54,0 c -0.287,0 -0.551,0.035 -0.789,0.108 -0.238,0.071 -0.468,0.196 -0.692,0.377 -0.225,0.181 -0.449,0.423 -0.671,0.725 -0.225,0.304 -0.474,0.692 -0.748,1.169 l -9.867,17.485 c -0.489,0.852 -0.985,1.727 -1.483,2.63 -0.496,0.901 -0.97,1.778 -1.418,2.629 l -0.02,0 c 0.013,-1.053 0.02,-2.131 0.02,-3.235 l 0,-3.235 0,-18.135 c 0,-0.086 -0.02,-0.165 -0.065,-0.238 -0.042,-0.073 -0.113,-0.13 -0.215,-0.172 -0.102,-0.043 -0.233,-0.08 -0.4,-0.108 -0.166,-0.03 -0.38,-0.045 -0.639,-0.045 -0.245,0 -0.455,0.015 -0.628,0.045 -0.172,0.028 -0.31,0.065 -0.411,0.108 -0.1,0.042 -0.173,0.099 -0.216,0.172 -0.044,0.073 -0.067,0.152 -0.067,0.238 l 0,26.206 c 0,0.519 0.139,0.877 0.412,1.071 0.275,0.196 0.542,0.293 0.803,0.293 l 1.082,0 c 0.344,0 0.634,-0.031 0.864,-0.087 0.231,-0.058 0.44,-0.155 0.627,-0.293 0.189,-0.138 0.373,-0.331 0.554,-0.584 0.181,-0.252 0.377,-0.573 0.594,-0.963 L -7.617,11.404 C -7.142,10.566 -6.69,9.764 -6.266,8.991 -5.84,8.22 -5.425,7.463 -5.021,6.72 -4.617,5.977 -4.216,5.244 -3.82,4.522 -3.422,3.801 -3.03,3.073 -2.641,2.338 l 0.022,0 C -2.633,3.549 -2.641,4.81 -2.641,6.125 l 0,3.786 0,16.295 c 0,0.087 0.022,0.166 0.065,0.238 0.043,0.073 0.116,0.134 0.217,0.185 0.1,0.05 0.234,0.087 0.401,0.107 0.165,0.022 0.378,0.033 0.638,0.033 0.231,0 0.432,-0.011 0.606,-0.033 0.174,-0.02 0.31,-0.057 0.411,-0.107 0.1,-0.051 0.176,-0.112 0.227,-0.185 C -0.026,26.372 0,26.293 0,26.206 L 0,0 Z"
             style="fill:#ffffff;fill-opacity:1;fill-rule:nonzero;stroke:none"
             id="path60"
             inkscape:connector-curvature="0" /></g><g
           id="g62"
           transform="translate(664.5718,404.38)"><path
             d="M 0,0 C 0,-0.189 -0.014,-0.354 -0.042,-0.498 -0.071,-0.642 -0.117,-0.766 -0.183,-0.867 -0.249,-0.967 -0.324,-1.044 -0.41,-1.094 -0.497,-1.145 -0.591,-1.17 -0.692,-1.17 l -13.114,0 c -0.261,0 -0.526,0.097 -0.8,0.293 -0.274,0.195 -0.411,0.551 -0.411,1.071 l 0,25.275 c 0,0.519 0.137,0.877 0.411,1.071 0.274,0.196 0.539,0.293 0.8,0.293 l 12.919,0 c 0.102,0 0.195,-0.025 0.282,-0.077 0.086,-0.051 0.159,-0.126 0.216,-0.226 0.058,-0.101 0.101,-0.227 0.13,-0.379 0.03,-0.152 0.044,-0.329 0.044,-0.529 0,-0.189 -0.014,-0.354 -0.044,-0.5 -0.029,-0.144 -0.072,-0.262 -0.13,-0.356 -0.057,-0.095 -0.13,-0.166 -0.216,-0.217 -0.087,-0.05 -0.18,-0.075 -0.282,-0.075 l -11.491,0 0,-9.847 9.912,0 c 0.116,0 0.215,-0.025 0.302,-0.075 0.088,-0.051 0.159,-0.122 0.216,-0.217 0.059,-0.093 0.102,-0.215 0.13,-0.368 0.028,-0.15 0.044,-0.329 0.044,-0.53 0,-0.187 -0.016,-0.349 -0.044,-0.487 -0.028,-0.136 -0.071,-0.247 -0.13,-0.335 -0.057,-0.087 -0.128,-0.152 -0.216,-0.195 -0.087,-0.044 -0.186,-0.064 -0.302,-0.064 l -9.912,0 0,-11.167 11.686,0 c 0.101,0 0.195,-0.025 0.282,-0.075 C -0.324,1.063 -0.249,0.99 -0.183,0.897 -0.117,0.803 -0.071,0.681 -0.042,0.53 -0.014,0.377 0,0.2 0,0"
             style="fill:#ffffff;fill-opacity:1;fill-rule:nonzero;stroke:none"
             id="path64"
             inkscape:connector-curvature="0" /></g></g></g></g></svg>